<svg width="122" height="122" viewBox="0 0 122 122" fill="none" xmlns="http://www.w3.org/2000/svg">
<rect width="122" height="122" rx="38.0488" fill="#FFF6F5"/>
<path d="M89.8104 40.5523C90.5752 39.482 92.0638 39.2332 93.1344 39.9975C94.2053 40.7623 94.4522 42.2517 93.6873 43.3225L85.6243 54.6126C86.0656 54.7147 86.5576 54.7939 87.1068 54.8426L95.9007 55.323H95.9066C98.1255 55.4499 100.183 56.0895 101.679 57.5854C103.197 59.1038 103.784 61.1487 103.785 63.3322V70.5713C103.785 72.5468 103.288 74.4662 101.88 75.8749C100.472 77.2836 98.5507 77.779 96.5749 77.7791H85.9521C84.4264 80.5599 81.4716 82.4456 78.076 82.4456C74.6809 82.4455 71.7267 80.5603 70.2009 77.78H50.561C49.0352 80.5603 46.0811 82.4455 42.6859 82.4456C39.2902 82.4456 36.3355 80.56 34.8098 77.7791H25.7938C23.8182 77.7789 21.8987 77.2834 20.4902 75.8749C19.0819 74.4661 18.586 72.5469 18.586 70.5713V64.1375C18.586 62.135 19.0918 60.252 20.3659 58.7655C21.5869 57.341 23.2832 56.5545 25.1724 56.2017L27.4543 55.4424L27.5942 55.3993C28.6298 55.123 29.8714 54.3737 31.295 52.8552C37.0536 46.2872 43.2758 41.3244 52.338 41.3243H61.9882C70.5061 41.3243 75.821 45.7403 81.6926 51.9148L89.8104 40.5523ZM42.6859 69.2542C40.3593 69.2542 38.4734 71.1411 38.4734 73.4677C38.4736 75.7942 40.3594 77.6802 42.6859 77.6802C45.0123 77.6801 46.8982 75.7941 46.8984 73.4677C46.8984 71.1411 45.0124 69.2543 42.6859 69.2542ZM78.076 69.2542C75.7495 69.2544 73.8635 71.1412 73.8635 73.4677C73.8637 75.794 75.7497 77.68 78.076 77.6802C80.4025 77.6802 82.2893 75.7941 82.2895 73.4677C82.2895 71.1411 80.4026 69.2542 78.076 69.2542ZM52.338 46.0897C45.3422 46.0897 40.3133 49.7843 34.8265 56.055C34.8088 56.0751 34.7909 56.0951 34.7726 56.1146C33.0039 58.0013 31.0564 59.3811 28.9103 59.9769L26.5482 60.7665C26.4304 60.8058 26.3096 60.8371 26.1871 60.8575C24.9525 61.0633 24.3225 61.4722 23.9845 61.8664C23.6501 62.2565 23.3514 62.9231 23.3514 64.1375V70.5713C23.3514 71.8118 23.6603 72.3057 23.8602 72.5058C24.0602 72.7057 24.5537 73.0155 25.7938 73.0156H33.7188C33.9541 68.267 37.8789 64.4888 42.6859 64.4888C47.4925 64.489 51.4162 68.2666 51.6521 73.0146H69.1098C69.3457 68.2666 73.2695 64.489 78.076 64.4888C82.883 64.4889 86.8078 68.267 87.0432 73.0156H96.5749C97.8156 73.0156 98.3104 72.7057 98.5104 72.5058C98.7103 72.3055 99.0192 71.8113 99.0192 70.5713V63.3322C99.0191 61.9786 98.6676 61.3146 98.3098 60.9564C97.9291 60.5756 97.169 60.1692 95.6345 60.0816V60.0796L86.7936 59.5992C86.7684 59.5978 86.7425 59.5964 86.7173 59.5943C83.8938 59.3487 81.4143 58.4586 79.6084 56.6528C79.5882 56.6327 79.5681 56.612 79.5487 56.5912C73.1092 49.6687 68.9122 46.0897 61.9882 46.0897H52.338Z" fill="#2E0000"/>
</svg>
